<?xml version="1.0" standalone="no"?>
<!DOCTYPE svg PUBLIC "-//W3C//DTD SVG 20010904//EN"
 "http://www.w3.org/TR/2001/REC-SVG-20010904/DTD/svg10.dtd">
<svg version="1.0" xmlns="http://www.w3.org/2000/svg"
 width="667.000000pt" height="667.000000pt" viewBox="0 0 667.000000 667.000000"
 preserveAspectRatio="xMidYMid meet">
<metadata>
Created by potrace 1.14, written by Peter Selinger 2001-2017
</metadata>
<g transform="translate(0.000000,667.000000) scale(0.100000,-0.100000)"
fill="#000000" stroke="none">
<path d="M4535 6276 c-39 -19 -184 -158 -670 -645 -341 -342 -622 -621 -625
-621 -3 0 -149 144 -325 321 -176 176 -340 332 -364 346 -51 31 -138 36 -186
11 -90 -47 -129 -160 -90 -256 11 -25 125 -146 345 -367 182 -182 330 -333
330 -335 0 -3 -381 -6 -847 -6 -467 -1 -870 -3 -898 -4 -68 -5 -191 -50 -259
-94 -118 -79 -218 -222 -251 -361 -12 -51 -14 -256 -12 -1335 l2 -1275 23 -66
c26 -77 104 -200 157 -247 62 -56 139 -102 216 -130 l74 -27 2053 -3 c1781 -2
2062 0 2123 13 217 45 396 218 456 441 4 16 9 598 10 1292 3 1102 1 1272 -12
1329 -42 182 -148 318 -315 404 -121 63 -114 63 -1072 63 -478 1 -868 3 -868
6 0 3 281 286 625 630 460 461 629 636 641 665 31 75 14 164 -43 216 -39 37
-63 48 -120 54 -38 4 -58 1 -98 -19z m-975 -1960 c25 -3 68 -8 95 -11 193 -21
369 -73 460 -135 177 -121 265 -345 292 -740 10 -149 10 -817 0 -940 -14 -169
-16 -187 -36 -287 -52 -253 -132 -389 -285 -482 -90 -54 -248 -100 -396 -116
-36 -4 -78 -9 -95 -11 -89 -12 -407 -18 -870 -18 -469 1 -633 5 -820 19 -55 4
-77 7 -170 21 -135 22 -295 79 -363 131 -81 61 -145 142 -183 230 -35 82 -73
240 -85 358 -3 28 -7 57 -9 65 -24 84 -24 913 0 1110 19 156 24 182 45 265 42
163 100 268 191 348 70 61 199 124 291 141 13 2 41 9 63 14 22 6 67 14 100 18
33 3 68 8 79 10 10 2 75 6 145 10 69 4 128 8 130 10 6 6 1371 -4 1421 -10z
m1681 -594 c154 -75 217 -251 145 -407 -108 -236 -444 -233 -554 5 -76 163 16
367 189 419 57 17 168 8 220 -17z m-22 -778 c129 -54 203 -169 196 -307 -5
-106 -77 -213 -175 -259 -69 -33 -197 -31 -266 4 -146 76 -209 253 -142 399
27 58 83 120 133 147 72 38 184 45 254 16z"/>
<path d="M1668 3862 c-32 -2 -58 -5 -58 -8 0 -2 12 -48 26 -102 51 -195 142
-538 148 -562 18 -64 58 -217 61 -230 2 -8 14 -51 26 -95 12 -44 39 -145 59
-225 21 -80 52 -197 69 -260 17 -63 48 -180 69 -260 l38 -145 136 -2 136 -3
11 33 c9 28 87 336 96 377 2 8 13 53 25 100 12 47 24 96 26 110 3 14 9 39 15
56 9 30 14 49 25 104 6 28 143 580 176 710 l22 85 12 -55 c6 -30 14 -62 17
-70 4 -8 9 -26 11 -40 3 -14 19 -79 36 -145 17 -66 40 -156 51 -200 11 -44 21
-87 23 -95 43 -164 178 -702 182 -720 2 -14 9 -36 13 -50 5 -14 14 -47 21 -75
6 -27 15 -66 21 -86 l9 -36 142 1 142 1 32 125 c18 69 50 195 72 280 165 633
287 1102 326 1255 26 99 51 190 56 203 11 25 24 23 -139 25 -73 1 -96 -2 -103
-14 -6 -10 -162 -623 -183 -719 -2 -8 -26 -107 -55 -220 -28 -113 -53 -212
-55 -220 -2 -8 -17 -71 -35 -140 -17 -69 -33 -134 -36 -145 -2 -11 -10 -42
-18 -70 l-13 -50 -11 40 c-13 49 -53 204 -57 225 -6 28 -145 585 -155 620 -8
31 -149 597 -155 624 -9 46 -19 66 -34 67 -73 4 -225 3 -231 -1 -5 -3 -36
-116 -69 -250 -34 -135 -65 -258 -70 -275 -5 -16 -64 -254 -131 -527 -67 -274
-126 -496 -130 -493 -4 3 -10 17 -12 32 -3 16 -19 83 -37 150 -18 67 -34 130
-36 140 -2 10 -34 135 -70 278 -37 143 -68 267 -70 275 -5 21 -168 665 -170
667 -2 4 -143 8 -197 5z"/>
</g>
</svg>
